<?xml version="1.0" encoding="utf-8"?>
<!-- Generator: Adobe Illustrator 17.1.0, SVG Export Plug-In . SVG Version: 6.00 Build 0)  -->
<!DOCTYPE svg PUBLIC "-//W3C//DTD SVG 1.1//EN" "http://www.w3.org/Graphics/SVG/1.1/DTD/svg11.dtd">
<svg version="1.1" id="Layer_1" xmlns="http://www.w3.org/2000/svg" xmlns:xlink="http://www.w3.org/1999/xlink" x="0px" y="0px"
	 viewBox="0 0 302.4 406.7" enable-background="new 0 0 302.4 406.7" xml:space="preserve">
<g id="LAVD23_1_">
	<g>
		<path fill="#FFFFFF" d="M0,139.9c0.3-1.4,0.7-2.8,1.6-4c0.3-0.5,0.3-1,0.3-1.5c-0.3-4.5,1.8-7.5,5.6-9.4c0.8-0.4,0.9-0.8,0.6-1.6
			c-1.8-5.2,1.3-11,6.6-12.4c1.3-0.4,2.5-1.1,3.7-1.6c0.4-0.2,0.4-0.5,0.4-0.9c-0.1-1.3,0.5-2.1,1.4-2.8c2.7-2,5.9-1.9,8.4,0.2
			c2.2,1.8,4.6,3.3,6.4,5.6c0.2,0.2,0.5,0.3,0.7,0.4c1.1,0.4,2,1,2.7,1.9c1.7,2.2,3.9,4,6,5.9c5.1,4.5,5.6,10.6,3.8,16.6
			c-0.2,0.7-0.7,1.2-1.1,1.7c0.1,0.1,0.1,0.2,0.1,0.2c5.6,0.9,10.1,4,14.5,7.4c5.6,4.2,10.3,9.3,15.5,14c2.9,2.6,6.1,4.6,10,5.3
			c1.1,0.2,2,0,2.9-0.7c2.5-2,5-3.9,7.6-5.6c3.9-2.5,8.2-3.6,12.8-4.2c2.7-0.4,5.4-0.3,8.1-0.2c0-0.6-0.4-0.8-0.7-1.1
			c-3.6-4.4-6.5-9.3-8.7-14.5c-0.4-1.1-0.8-1.2-1.8-0.5c-2.9,1.9-6,3.5-9.5,4.2c-0.1,0-0.2,0.1-0.4,0.1c-2.4,0.4-2.9,0.1-3-2.4
			c-0.2-3.4,1-6.3,2.9-9.1c1.8-2.8,4.1-5.1,6.7-7.2c0.6-0.5,0.8-1,0.7-1.8c-1-9.6,0.3-18.9,3.8-27.9c2.4-6.1,5.9-11.4,10.1-16.3
			c2.6-3,5.1-6.1,7.1-9.5c0.9-1.6,1.7-3.2,1.4-5.1c0-0.3,0.1-0.6,0.3-0.7c0.3-0.1,0.5,0.1,0.7,0.3c1.3,1.2,2.2,2.7,2.9,4.3
			c0.6,1.2,1.1,2.4,1.5,3.7c2,6,5,11.4,8.5,16.6c4.3,6.5,9,12.7,14,18.9c-0.1-1.7-0.1-3.3-0.2-4.9c-0.4-5-0.6-10.1,0.7-15
			c0.8-3,2.6-5.5,4.4-8.1c1.1-1.6,1.1-1.6-0.6-2.4c-1-0.5-2-1-2.9-1.7c-0.7-0.5-1.3-1-1.2-2c0-0.4-0.3-0.7-0.5-1.1
			c-0.4-0.5-0.7-1-1-1.6c-1-1.9-0.7-3.3,1-4.7c0.6-0.5,0.6-0.7,0.1-1.2c-3.1-3.3-2.7-7.6,0.9-10.9c2.3-2.1,4.6-4.3,7.5-5.6
			c5.4-2.4,10.5-2.1,15,2c3.4,3.1,5.9,6.7,7,11.2c0.4,1.6,0.3,3.1,0.4,5.1c0.4-0.8,0.6-1.2,0.9-1.7c2-4.3,5.2-7.4,9.1-9.9
			c1.9-1.2,1.9-1.3,0.3-2.9c-0.7-0.8-1.4-1.5-2-2.4c-0.4-0.7-0.8-1.4-0.4-2.2c0.2-0.5-0.1-0.9-0.1-1.4c-0.2-0.9-0.5-1.8-0.3-2.8
			c0.2-1.3,0.8-2.3,2.1-2.7c1.2-0.3,1.1-0.9,0.8-1.8c-1.2-3.9,0.2-7,3.8-8.8c1.9-0.9,3.8-1.8,5.8-2.4c2.7-0.8,5.4-1.1,8.2-0.7
			c3.1,0.5,5.8,1.7,7.7,4.3c4.3,5.7,5.8,12,3.6,19c-0.6,1.9-1.8,3.2-3.7,3.9c-2.3,0.9-4.7,1.7-7,2.5c-0.2,0.1-0.5,0.2-0.7,0.2
			c-2.1,0.1-3.9,0.4-5.5,2c-1,1-2.6,0.7-3.9,0.1c-1.6-0.7-3-1.6-4.2-2.7c-0.7-0.6-1.3-0.6-1.9,0c-0.5,0.5-1.1,0.9-1.7,1.3
			c-4.5,2.7-7.3,6.7-9.1,11.6c-1.3,3.6-2.3,7.3-3.3,11c-1.3,4.8-3.3,9.3-5.9,13.5c-0.2,0.3-0.7,0.7-0.5,1c0.2,0.4,0.8,0.2,1.2,0.2
			c2.9-0.2,5.8-0.4,8.7-0.9c4.3-0.8,8.1-2.7,11.2-5.8c0.8-0.8,2-1.3,2.3-2.2c0.3-0.9-0.7-1.9-1-3c-0.4-1.1-0.8-2.3-0.9-3.5
			c-0.2-2,0.6-3.3,2.3-4.2c0.7-0.4,1-0.8,1.1-1.5c0-0.4,0.2-0.9,0.4-1.3c1.5-3.1,3.5-6,5.6-8.8c1.1-1.4,2.8-1.8,4.4-1.8
			c7.6-0.2,13.6,2.9,17.8,9.2c2.6,3.9,2,8.2,0.4,12.3c-1.3,3.3-3.3,6-5.7,8.6c-2.3,2.5-5.7,2.7-8.9,0.8c-0.8-0.5-1.1-0.5-1.6,0.3
			c-1,1.6-2.6,2-4.5,1.2c-1.1-0.4-2.1-1.3-3.4-1.1c-0.6,0.1-1-0.5-1.4-1c-0.9-1.1-1.7-2.2-2.5-3.4c-0.4-0.7-0.7-0.7-1.3-0.2
			c-0.7,0.7-1.5,1.3-2.2,2c-3.8,3.8-8.6,5.3-13.8,6c-4.2,0.6-8.5,0.6-12.7,0.8c-5.2,0.3-10.1,1.5-14.9,3.3c-0.7,0.2-1,0.6-0.9,1.3
			c0.2,3.1,0.5,6.2,0.7,9.3c0,0.3,0.1,0.6,0.3,0.9c2.9,4.1,5.3,8.4,6.9,13.4c1.2-1.5,2.2-2.9,3.3-4.2c8.5-9.9,19-16.5,31.7-19.6
			c5.1-1.2,10.4-1.1,15.6-1.6c2.7-0.2,5.5-0.5,8.2-1.3c1.2-0.4,2.4-0.8,3.3-1.8c0.3-0.3,0.6-0.8,1.1-0.6c0.5,0.3,0.3,0.8,0.3,1.3
			c-0.2,2.6-1.1,4.9-2.3,7.1c-4.3,7.7-6.4,16.1-8.2,24.6c-1.5,7-2.2,14.2-3.7,21.3c-1,4.8-2.3,9.5-4.5,13.9
			c-3.8,7.5-10,12.1-17.8,14.7c-3.9,1.3-7.8,2-11.9,2.2c-1.3,0.1-1.3,0.1-0.7,1.2c0.5,0.9,1.1,1.9,1.4,2.9c0.1,0.3,0.3,0.7-0.1,0.9
			c-0.3,0.2-0.5-0.1-0.7-0.3c-1.3-0.9-2.7-1.7-4-2.6c-2.7-1.7-5.4-3-8.5-3.8c-3.5-0.8-6.7-2.5-9.1-5.3c-0.3-0.4-0.8-0.7-1.3-0.9
			c-2.8-1.6-5.5-3.2-8.3-4.8c-1-0.6-1.8-1.4-2.6-2.1c-0.5-0.5-0.9-0.6-1.5-0.2c-2.1,1.2-4.4,1.6-7.1,1.9c1.3,0.1,2.3,0.1,3.3,0.2
			c2.4,0.1,4.7,0.5,6.8,1.7c4,2.2,8.1,4.4,11.9,7c3.3,2.2,5.8,5.1,7.3,8.8c0.7,1.8,1,3.7,0.5,5.6c-0.7,2.6-1.2,5.1-1.5,7.8
			c0,0.3-0.2,0.5-0.3,1c-0.8-1.2-1.5-2.3-2.3-3.2c-1.1-1.4-1.8-2.8-1.9-4.7c-0.2-2.5-1.6-4.6-3-6.6c-1.9-2.7-3.8-5.4-5.5-8.2
			c-1-1.6-2.4-2.7-4.3-3c-5-0.9-9.8-2.3-14.8-3c-3.2-0.4-6.5-0.4-9.6,0.7c-0.9,0.3-1.6,0.3-2.4-0.4c-1.5-1.3-3.3-1.9-5.1-2.8
			c5-1.3,9.9-3.7,15.4-2c-1.1-0.7-2.2-1.5-3.4-2c-1.2-0.5-2.6-0.2-3.9,0.1c-2.8,0.4-5.4,1.4-8.1,2c-2.4,0.6-4.8,0.8-7.2,0
			c-1.4-0.4-2.7-0.7-4.2,0.3c-1.3,0.8-3.1,0.8-4.8,1c-0.4,0.1-0.9,0.1-1.3,0.1c-3.8,0.2-7.4,1.6-11.2,2.1c-0.9,0.1-1.8,0.4-2.6,0.9
			c-1.1,0.7-2.2,0.6-3.6,0.2c1.3-1,2.6-1.9,3.9-2.9c-0.4-0.5-0.9-0.5-1.4-0.6c-3.1-1-5.8-2.5-8.2-4.7c-4-3.6-7.8-7.4-11.8-10.9
			c-4.1-3.7-8.4-7.1-13.6-9.4c-1.8-0.8-3.6-1.3-5.6-1.1c-0.5,0-0.9,0.1-0.7,0.8c0.7,1.8-0.2,3.1-1.6,4.1c-0.9,0.7-1.7,1.3-1.3,2.7
			c0.2,0.8-0.3,1.5-0.9,2.1c-1.3,1.6-3.1,2.6-4.9,3.5c-3,1.4-5.8,3.2-8.8,4.7c-0.6,0.3-1.3,1-1.9,0.4c-0.7-0.6-0.6-1.5-0.3-2.4
			c0.1-0.4,0.3-0.8,0.5-1.3c-2.5,0.5-5,0.8-7.4,1c-5.8,0.5-10.3-1.5-13.8-6.1c-1.8-2.3-3.4-4.6-4.2-7.5C0.1,141.8,0,140.9,0,139.9z
			 M185.1,66.9c-2.7,2.6-5.3,5-8.3,7c-0.5,0.4-1.1,0.6-1.7,0.8c-0.6,0.2-1,0.6-1.2,1.2c-0.8,2.2-2.3,3.1-4.7,2.9
			c-1.3-0.1-2.5-0.4-3.8-0.7c-2.1-0.6-2-0.5-3.4,1.2c-3.7,4.7-5.3,10-5,16c0.1,1.4,0.1,1.4,1.5,1c4.5-1.6,9.1-2.9,13.9-2.9
			c1.6,0,2.4-0.7,3.2-1.9C180.9,84.1,182.3,75.2,185.1,66.9z M137,110.1c-0.1,0.2-0.2,0.3-0.2,0.4c-0.6,4.4-1.6,8.6-2.6,12.9
			c-1.1,4.8-2.1,9.6-2.1,14.6c0.1,4.8,0.9,9.5,1.9,14.2c0.5,2.1,1.1,4.3,1.6,6.4c0.2,0.7,0.7,1,1.4,0.9c0.5,0,0.4-0.6,0.5-1
			c0.2-4.3,0.7-8.6,1.3-12.9c0.8-6.6,1.8-13.1,1.7-19.8c-0.1-5.1-0.7-10-2.7-14.7C137.5,110.9,137.5,110.4,137,110.1z M200.1,134.2
			c-0.4,0.2-0.6,0.2-0.8,0.4c-4.2,3-8.6,5.5-13.1,8c-10.3,5.6-17,14.6-23,24.3c-0.2,0.3-0.4,0.6-0.1,0.9c0.3,0.3,0.8,0.5,1.2,0.3
			c0.4-0.2,0.7-0.4,1-0.7c1.8-1.4,3.6-2.9,5.5-4.3c5.5-4.1,11.3-7.9,16.6-12.4c4.8-4,9.1-8.4,11.8-14.2
			C199.5,135.7,199.7,135.1,200.1,134.2z M154.9,157.8c-2.6,2.4-5.2,4.5-8.1,6.3c2.7,0.4,5.3,1,7.9,1.5c0.7,0.1,0.7-0.4,0.6-0.8
			c-0.1-1.4-0.3-2.7-0.4-4.1C155,159.8,155,158.9,154.9,157.8z"/>
		<path fill="#FFFFFF" d="M65,0c0.1,2.3,0.9,4.4,1.7,6.4c0.8,1.8,1.5,3.7,2,5.6c0.5,2.5,0.2,4.9-0.8,7.1c-2,4.4-4.6,8.4-8.4,11.4
			c-3.7,3-4,2.5-5.5-1.5c-1.4-3.6-1-7.3,0-11c1.8-6.3,5-11.9,9.6-16.7c0.4-0.5,1-0.8,1.1-1.5C64.8,0,64.9,0,65,0z"/>
		<path fill="#FFFFFF" d="M251.7,406.7c-0.6-2.6-1.8-4.9-3.2-7.1c-1.6-2.5-2.8-5.2-2.8-8.3c0-2.7,1-5.1,2.1-7.5
			c1.4-3.1,3.1-6.1,5.5-8.5c3-2.9,3.3-2.6,5.2,0.7c2.2,3.8,2.2,8,1.4,12.1c-1.1,6.3-3.5,12-7.4,17.1c-0.3,0.4-0.7,0.8-0.7,1.4
			C251.9,406.7,251.8,406.7,251.7,406.7z"/>
		<path fill="#FFFFFF" d="M302.4,384.4c-0.7-0.2-1.3,0.1-2,0.2c-7.2,1.4-14.2,1.1-21.1-1.4c-3.7-1.4-6.8-3.5-8.7-7.1
			c-0.7-1.4-0.7-1.7,0.7-2.5c2.3-1.4,4.9-1.8,7.4-2.1c3-0.4,6.1-0.4,9.1,0.1c3.6,0.6,6.2,2.5,8.3,5.3c1.5,1.9,2.7,4.1,4.5,5.8
			c0.6,0.5,1.2,1,1.7,1.5C302.4,384.3,302.4,384.3,302.4,384.4z"/>
		<path fill="#FFFFFF" d="M75.4,289.7c0.9,1.6,1.6,3,2.4,4.5c2.2,4.2,2.9,8.7,2.3,13.4c-0.3,2.8-0.3,2.8,2.4,2.7
			c0.8,0,1.5-0.1,2.3-0.1c1,0,1.9,0.2,2.4,1.2c0.2,0.4,0.6,0.5,1,0.7c0.6,0.3,1.3,0.6,1.9,1c1.6,1.1,2,2.3,1.3,4.2
			c-0.3,0.8-0.1,1,0.6,1.3c4.4,1.9,5.7,4.7,4.6,9.3c-1,3.9-2.3,7.7-5,10.7c-3.2,3.6-7.2,5.2-12,4.4c-5.8-1-10.7-3.5-14.1-8.5
			c-1.3-1.9-1.7-4-0.9-6.1c0.8-2.2,1.5-4.3,2.3-6.4c0.1-0.4,0.3-0.8,0.5-1.1c1.2-1.6,2.1-3.2,1.8-5.4c-0.2-1.5,1.2-2.4,2.5-3.1
			c1.5-0.7,3.1-1.2,4.7-1.5c0.8-0.2,1.1-0.5,1.1-1.4c0-1.9,0.3-3.7,0.4-5.6c0.1-2-0.4-4-1-5.9c-0.7-2.2-1.8-4.2-3-6.2
			c-0.5-0.9-0.9-0.9-1.6-0.1c-1.5,1.7-3,3.3-4.6,4.9c-2,2-4.3,3.7-6.7,5.2c-0.8,0.5-1.1,1.2-1.2,2.2c-0.6,7.3,1,14.2,2.9,21.1
			c1.1,4.1,2,8.3,1.7,12.7c-0.1,2.2-0.5,4.3-1.4,6.3c-0.7,1.6-1.4,3.1-2.1,4.7c-0.3,0.6-0.1,0.9,0.5,1.1c1.3,0.3,2.6,0.7,3.9,1.3
			c0.8,0.4,1.6,0.8,1.7,1.9c0.1,0.7,0.8,1,1.3,1.5c2,2.2,2.1,3.3,0.3,5.8c-0.3,0.3-0.2,0.6,0,0.8c0.2,0.2,0.4,0.3,0.5,0.5
			c3.1,2.9,3.6,6.2,1.1,9.8c-1.6,2.4-3.3,4.7-5.6,6.5c-5.1,4.2-11.1,5.4-17.1,1.3c-4.6-3.1-7.9-7.1-9.1-12.6c-0.4-2-0.1-3.8,1.2-5.4
			c1.6-1.9,3.2-3.8,4.8-5.7c0.2-0.2,0.4-0.5,0.7-0.7c1.6-1.1,3.1-2.1,3.5-4.3c0.3-1.4,1.8-1.9,3.3-2.1c1.8-0.1,3.5-0.2,5.3,0.1
			c0.5,0.1,1,0.2,1.2-0.4c1.3-3.2,3.2-6.2,3.5-9.8c0.3-3.9-0.3-7.6-1.1-11.4c-0.9-4-2.1-7.9-2.8-11.9c-0.6-3.2-0.7-6.5-0.6-9.8
			c0-0.4,0.2-0.9-0.2-1.1c-0.4-0.3-0.8,0.3-1.1,0.5c-3.2,2.1-6.3,4.2-9,6.9c-2.1,2.1-3.5,4.6-4.4,7.5c-0.4,1.1-0.7,2.3-1.2,3.4
			c-0.4,0.8-0.1,1.3,0.6,1.8c1.3,0.8,2.5,1.8,3.6,3c1.7,1.9,1.9,3.7,0.5,5.8c-0.3,0.5-0.3,0.9-0.1,1.4c0.6,1.7,0.6,3.4,0.5,5.2
			c-0.1,1.8-0.2,3.7-0.3,5.5c-0.1,2-1.1,3.6-2.7,4.7c-4.7,3.4-10,4-15.6,3c-8-1.4-11-7.3-11.5-13.4c-0.2-2.6,0-5.1,0.4-7.6
			c0.6-4.3,3.1-6.5,7.5-6.6c1,0,1.5-0.1,1.4-1.3c0-1.5,1-2.5,2.5-3c1.5-0.4,3-0.3,4.5-0.9c1.2-0.5,2.5,0.5,3.7,1
			c2.5,1.2,2.6,1.2,3.3-1.4c1.7-6.9,6.3-11.4,11.9-15.2c3.8-2.6,7.9-4.9,11.6-7.7c3-2.3,5.4-5.1,7.9-7.9c0.6-0.6,0.2-1.1-0.1-1.6
			c-2.1-2.9-4.2-5.8-6-9c-0.8-1.5-1.7-2.9-2.2-4.5c-0.6-1.6-1.4-3-2.6-4.3c-5.5-5.8-5.4-12.4-3.1-19.5c0.3-1.1,0.9-2.1,1.5-3
			c0.1-0.2,0.3-0.5,0.5-0.5c0.3,0,0.3,0.3,0.4,0.5c0.7,3.4,2.4,6.2,4.1,9.1c1.7,2.8,3.2,5.7,4.9,8.5c1,1.8,2.3,3.3,3.8,4.8
			c1.3,1.2,2.4,2.6,3.2,4.2c1.6,3.1,3.9,5.4,7.3,6.6c1.7,0.6,3,1.8,4.3,3c4.5,4.1,9.9,6.2,15.8,7.2c5.8,1,11.8,1.2,17.7,1.5
			c2.2,0.1,4.4,0.2,6.6,0.9c5.3,1.7,10.6,1.5,16-0.4c2.1-0.7,4.4-1,6.6-1.4c0.7-0.1,0.7,0.3,0.5,0.8c-0.9,1.5-1.9,2.9-3.2,4.2
			c-4.2,3.9-9.3,6-14.7,7.4c-7.4,1.8-14.9,2.4-22.5,1.7c-5.1-0.4-10.2-0.8-15.2-2c-5.2-1.3-9.7-3.9-13.1-8.2c-1.6-2-3.4-4-5.6-5.4
			C75.9,290,75.7,289.9,75.4,289.7z"/>
		<path fill="#FFFFFF" d="M132,382.1c-0.1-2.8,0.2-5.6,1.4-8.2c0.9-2.1,2.4-3.6,4.4-4.5c2.1-0.9,4.2-2.2,6.7-1.7
			c0.6,0.1,1.1-0.3,1.5-0.6c2.2-1.8,4.7-1.9,7.2-1c2.8,0.9,4.9,2.8,7.1,4.6c2.1,1.8,4.2,3.6,6,5.7c3.6,4.3,5.4,12.1,1.6,17.5
			c-1.7,2.3-3.8,4-6.4,5.1c-5.3,2.4-10.9,2.8-16.5,1.3c-6.9-1.9-10.8-6.7-12.4-13.5c-0.2-1-0.4-2-0.6-3.1
			C132,383.2,132,382.6,132,382.1z M138.6,371.8c-0.1,0-0.1,0.1-0.2,0.1c0.2,0.9,0.4,1.8,0.6,2.7c1,3.8,2.1,7.5,4.5,10.7
			c0.7,0.9,1.5,1.7,2.9,2.4C143.6,382.2,141.1,377,138.6,371.8z M148.4,369.8c1.3,3.3,3.3,5.9,6.9,7.3
			C152.8,374.5,150.6,372.1,148.4,369.8z M148.7,379.3c-1.9-2.4-3.9-4.7-6-7.3C143.3,373.8,146.9,378.2,148.7,379.3z"/>
		<path fill="#FFFFFF" d="M116,355c1.2-0.1,2.5,0,3.7,0.2c3.8,0.5,6.4,2.6,8.1,6c0.7,1.5,1.5,2.9,1.4,4.6c0,0.7,0.4,1.3,0.9,1.7
			c1.9,1.9,2.2,4.2,1.8,6.7c-0.6,3.4-2.7,6.1-4.6,8.9c-1.4,2.1-2.8,4.4-4.7,6c-6.7,5.8-16,6.9-21.9-1.6c-4.3-6.3-5.3-13.3-3-20.6
			c1.7-5.4,5.8-8.5,10.9-10.5C111.1,355.6,113.4,355,116,355z M109.7,370c5-3.2,9.8-6.2,14.5-9.3c-4.5,1.3-8.8,2.9-12.4,6
			C111,367.6,110.2,368.5,109.7,370z M127.6,370.1c-3,1.7-5.6,3.9-6.5,7.7C123.4,375.1,125.5,372.6,127.6,370.1z M118.2,371.5
			c2.2-2.2,4.4-4.4,6.6-6.7C122.1,366.6,119.8,368.8,118.2,371.5z"/>
		<path fill="#FFFFFF" d="M189.3,348.7c0,7.2-2.3,13.6-7.9,18.5c-3.2,2.8-7.1,3.9-11.3,3.7c-4.8-0.2-9.2-1.4-13.1-4.3
			c-3-2.3-4.3-5.2-4.1-8.9c0.1-1.8,0-3.5,0.9-5.1c0.3-0.5,0.1-1.1,0-1.6c-0.8-2.6,0-4.9,1.7-6.9c2.3-2.7,5.4-4.2,8.5-5.7
			c2.6-1.3,5.2-2.8,8.2-3.3c5.6-0.8,11.9,0.7,15,6.2C188.6,343.5,189.2,346,189.3,348.7z M173.1,358.3c-5.9,0.4-11.7,0.9-17.4,1.3
			c4.3,1,8.5,1.4,12.8,0.8C170.1,360.2,171.7,359.7,173.1,358.3z M156.6,350.1c3.9-0.3,7.4-1,10.1-4
			C163.3,347.4,160.1,348.7,156.6,350.1z M166.3,353c-3.3,1-6.6,2-9.9,3.1C159.9,355.6,163.2,354.7,166.3,353z"/>
		<path fill="#FFFFFF" d="M144.4,303.8c8.2,0.2,15,3.2,19.8,10.1c2.3,3.3,2.7,7,2.3,10.9c-0.5,4.6-2.1,8.7-5.1,12.2
			c-2.6,3.1-5.9,4.4-9.9,3.8c-1.6-0.2-3.3-0.3-4.6-1.4c-0.5-0.4-1.2-0.3-1.7-0.2c-2.7,0.6-4.8-0.5-6.7-2.2c-1.4-1.3-2.3-3-3.1-4.8
			c-1.7-3.7-3.5-7.3-4.2-11.3c-1-6.2,1.3-15,10.7-16.8C142.5,303.9,143.5,303.9,144.4,303.8z M153.9,338c0.8-1.5,1-3.1,1.3-4.7
			c0.6-2.7,0.8-5.5,0.5-8.2c-0.1-1.4-0.4-2.8-1.6-3.9C154,326.8,154,332.4,153.9,338z M144.3,336.1c0.3-3.8-0.3-7-2.9-9.9
			C142.4,329.5,143.3,332.7,144.3,336.1z M148.2,327.1c0.7,3.3,1.4,6.6,2.1,9.8C150.3,333.5,149.7,330.2,148.2,327.1z"/>
		<path fill="#FFFFFF" d="M116.3,319.9c5.5-0.3,9.9,2.4,13.7,6.1c2.7,2.6,4.7,5.7,5.5,9.4c0.5,2.4,0.3,4.7-1,6.8
			c-1.2,1.9-2.3,4-4.4,5.1c-0.6,0.3-0.8,0.9-0.9,1.5c-0.8,2.6-2.7,4-5.1,4.8c-3,1-6.1,0.6-9.2,0.3c-2.2-0.2-4.3-0.6-6.5-0.9
			c-4.6-0.6-11.6-5.6-12.4-12c-0.5-3.4,0.4-6.6,2.2-9.5c3.6-6,8.9-9.9,15.8-11.4C114.7,319.9,115.5,319.9,116.3,319.9z M117.5,332.2
			c4.9,2.7,9.8,5.4,14.7,8.1c-3.5-3.5-7.2-6.7-12-8.2C119.4,331.8,118.5,331.8,117.5,332.2z M115.5,345.7c3.6,0.7,7,1.4,10.8,2.2
			C122.8,345.8,119.4,344.8,115.5,345.7z M119.4,340c3.3,0.9,6.6,1.9,9.9,2.8C126.2,341.3,122.9,340.2,119.4,340z"/>
		<path fill="#FFFFFF" d="M103.3,279.8c1.9,0.3,3.7,0.6,5.5,0.9c3.3,0.6,6.6,1.2,10,0.9c1.7-0.2,3.5-0.4,4.8-1.4
			c1.1-0.9,2.1-0.7,3.2-0.6c2.2,0.2,4.2-0.4,6.2-1.1c2.2-0.7,4.2-0.7,6.2,0.5c1.3,0.7,2.6,0.8,4.1,0.4c5.8-1.6,10.8-4.5,14.5-9.4
			c1.1-1.6,1.9-3.3,2.6-5.1c0.7-1.7,0.8-1.7,2.6-1.5c2.2,0.2,4.3-0.1,6.3-1.1c0.3-0.1,0.7-0.5,1-0.2c0.3,0.2,0.1,0.7,0,1
			c-0.7,3.3-1.3,6.7-2.6,9.8c-1.7,4-4.5,7-8.5,8.7c-4,1.7-7.7,3.9-11.2,6.6c-7.1,5.6-15,5.9-23.2,2.7c-2.1-0.8-4.1-1.9-6.1-3.1
			c-3.1-1.9-6.3-3.4-9.8-4.4c-1.7-0.5-3.4-1.1-4.8-2.4C103.8,280.7,103.4,280.5,103.3,279.8z"/>
		<path fill="#FFFFFF" d="M198.1,227.5c0.6,0.7,0.7,1.2,0.8,1.8c0.5,4.1,1.5,8.1,2.8,12c2.2,6.1,1,11.7-2.1,17.1
			c-3.3,5.8-7.2,11.1-12.3,15.4c-3.2,2.8-5.5,6.2-7.5,9.9c-2,3.8-4.5,7.1-8.3,9.3c-4.6,2.6-9.6,4.1-14.8,4.9
			c-2.3,0.4-4.5-0.3-6.8-0.6c-0.6-0.1-0.7-0.4-0.3-0.8c1.3-1.5,2.3-3.1,3.1-4.9c0.3-0.6,0.9-0.7,1.4-0.8c5-1.1,10-2.3,14.7-4.4
			c4.7-2.2,8.5-5.4,11.2-10c2.8-4.9,5.1-10,7.5-15.1c1.6-3.4,2.8-6.9,3.1-10.6c0.1-1.7-0.2-3.4-0.5-5.1c-0.1-0.4-0.2-0.8,0.2-1.2
			c4.1-3.8,5.9-8.8,7.1-14.1C197.8,229.3,197.9,228.5,198.1,227.5z"/>
		<path fill="#FFFFFF" d="M185.1,221.6c-0.1,2.4-0.2,4.8-0.9,7c-0.9,2.7-1,5.5-1.3,8.3c-0.7,6.3-3.6,11.8-6.8,17.1
			c-1.4,2.3-3.2,4.1-5.4,5.6c-1.9,1.3-4.1,2.1-6.4,2.1c-0.4,0-1,0.1-1.2-0.3c-0.2-0.4,0.3-0.7,0.6-1c1.1-1.5,2.3-2.9,3-4.6
			c0.6-1.3,0.7-2.6,0-3.9c-0.3-0.6-0.3-1,0.2-1.5c1-0.9,1.7-2,2.5-3.1c0.9-1.3,2-2.5,3.4-3.3c2.9-1.7,3.7-4.3,3.7-7.4
			c0-2.4-0.2-4.8-0.5-7.2c-0.4-3.5-0.1-7.1-0.2-10.7c-0.1-3.4-1.2-6.2-3.7-8.5c-2.5-2.2-3.3-5.4-4.8-8.2c-0.1-0.2-0.1-0.4-0.1-0.6
			c0.7-3,0.8-6.1,1.7-9.1c0.1-0.5,0.3-1.2,1-0.5c2.7,2.7,5.9,4.8,8.4,7.7c1.9,2.2,3.2,4.7,3.9,7.5c0.9,3.6,1.9,7.1,2.5,10.7
			C184.8,219.1,184.9,220.4,185.1,221.6z"/>
		<path fill="#FFFFFF" d="M169.4,190.7c1-4.2-0.8-7.5-2.8-10.8c0.4-0.4,0.7-0.2,1-0.1c7.2,2.8,13.6,6.7,18.6,12.7
			c1.6,1.8,2.7,4,3.7,6.2c2.1,4.6,4.1,9.3,5.6,14.1c2.3,7.4,1.4,14.7-1.1,21.9c-0.9,2.6-2.2,4.9-3.9,7c-0.2,0.3-0.5,0.8-0.9,0.6
			c-0.4-0.1-0.3-0.6-0.5-0.9c-1.8-3.5-2.5-7.3-3.4-11.1c-0.1-0.3-0.1-0.6,0-0.9c1.7-5.2,1-10.4-0.1-15.6c-0.6-2.5-1.2-5-1.8-7.4
			c-1.1-4.4-3.7-7.8-7-10.7c-1.8-1.6-3.6-3.1-5.4-4.8C170.8,190.3,170.3,189.8,169.4,190.7z"/>
		<path fill="#FFFFFF" d="M53.9,258c-3.4-4.6-6.6-9-7.5-14.6c-1-5.7-1-11.5-1-17.3c0.1-8.4,1.5-16.6,3-24.8
			c1.1-6.3,4.4-11.4,9.3-15.5c4.6-3.8,9.6-7.1,14.6-10.2c2.6-1.6,5.4-2.5,8.4-2.9c0.3,0,0.6-0.3,0.7,0.1c0.1,0.3-0.2,0.4-0.3,0.6
			c-1.7,1.5-3.5,3-5.3,4.5c-0.2,0.1-0.4,0.2-0.7,0.2c-5.3,1-9.2,4.2-12,8.7c-2.3,3.6-4.4,7.3-6.4,11.1c-2.7,5.2-4.1,10.8-4.6,16.7
			c-0.5,6.4-0.1,12.7,0.6,19c0.3,2.7,1.2,5.1,3,7.2c0.9,1,1.7,2.1,2.3,3.4c0.3,0.5,0.4,1,0,1.6c-2.5,3.4-3.7,7.2-4,11.4
			C54,257.3,54,257.5,53.9,258z"/>
		<path fill="#FFFFFF" d="M119.8,290.8c-1.9-0.1-3.7-0.2-5.6-0.3c-4.4-0.3-8.8-0.5-13.1-1.6c-4.9-1.2-9.6-3.2-13.3-6.8
			c-1.4-1.4-3.1-2.4-4.9-3.1c-2.3-0.9-4-2.4-5.2-4.6c-1.3-2.3-2.8-4.4-4.7-6.2c-1.9-1.8-3.2-4-4.4-6.2c-1.6-2.8-3.1-5.7-4.8-8.4
			c-1.6-2.6-2.6-5.5-2.8-8.6c-0.1-2.4,0.8-4.5,1.8-6.5c0.4-0.9,0.7-0.2,0.9,0.2c1.2,2.4,2.7,4.6,4.8,6.4c0.5,0.4,1.1,0.8,1.6,1.2
			c0.2,0.2,0.5,0.4,0.8,0.1c1-1.1,0.8,0,1,0.5c1.5,5.3,2.5,10.8,5.4,15.7c3.6,6.1,8.8,10.3,15.8,11.9c3,0.7,5.4,2.3,7.8,4.1
			c0.2,0.1,0.4,0.2,0.3,0.4c-0.7,1.4,0.5,2,1.2,2.8c1.6,1.7,3.8,2.7,6,3.3c4,1,7.5,3,10.9,5.1c0.2,0.1,0.3,0.2,0.4,0.4
			C119.9,290.6,119.8,290.7,119.8,290.8z"/>
		<path fill="#FFFFFF" d="M72.1,215.2c-0.1-1.4,0.2-2.7,0.9-3.9c1.5-2.6,2.9-5.3,4-8.1c0.7-1.7,2.1-2.4,3.7-2.3
			c0.5,0,0.8,0.1,0.6,0.7c-1.2,2.8-0.4,5.3,0.8,7.8c0.4,0.9,0.4,1.6-0.1,2.5c-1,1.6-1.1,3.3-0.3,5.1c0.3,0.7,0.4,1.4-0.1,2
			c-1.1,1.4-1.1,3.1-0.2,4.5c1.5,2.2,1.4,4.3,0.3,6.6c-1.1,2.5-0.2,4.8,1.5,6.9c1.2,1.5,2.5,2.9,2.8,4.9c0.1,1,0.2,2,0.4,3
			c0.4,2.2,1.2,4.1,3.4,5c0.5,0.2,0.7,0.6,0.9,1.1c0.3,0.9,0.9,1.7,1.7,2.1c0.9,0.5,1.6,1.1,2.1,2c0.9,1.4,2.2,2.2,3.8,2.4
			c1.1,0.2,2,0.9,2.6,1.8c0.3,0.3,0.4,0.7-0.1,0.9c-2.9,1.2-5.8,2.6-9.1,2.2c-1.1-0.1-2.1-0.4-3-1.1c-2-1.4-4-2.8-6-4.2
			c-1.2-0.8-2-1.9-2.5-3.3c-1.1-3.8-3-7.4-3.6-11.4c-0.4-2.4-0.7-4.9-0.8-7.4c-0.3-5-1.2-9.9-2.8-14.7
			C72.6,218.6,72.2,216.9,72.1,215.2z"/>
		<path fill="#FFFFFF" d="M157.4,226.9c-0.6,4.5,0.3,9-0.4,13.5c-0.2,1.2-0.4,2.3-0.9,3.4c-0.3,0.7-0.6,1.5-1.4,1.7
			c-1,0.4-1.4,1.1-1.7,1.9c-0.9,2.3-2.4,3.1-4.7,2.4c-2.4-0.7-5-1.2-7.3-2.2c-0.3-0.2-0.7-0.3-1-0.1c-0.3,0.2-0.6,0.2-0.7,0.6
			c-0.1,0.4,0.3,0.6,0.5,0.7c0.9,0.6,1.9,0.9,3,1.2c1.5,0.4,1.5,0.4,0.9,1.9c-0.2,0.4-0.4,0.9-0.5,1.3c-0.3,1.1-0.9,1.7-2.2,1.7
			c-1.3,0-2,1-2.5,2.1c-0.7,1.3-1.2,2.7-2.1,3.9c-0.5,0.7-1.1,1.4-1.8,1.9c-1.1,0.8-1.6,0.6-2.1-0.6c-0.5-1.5-0.6-1.5-1.8-0.6
			c-0.8,0.6-1.6,1.2-2.4,1.8c-2,1.4-4,1.4-5.3-0.7c-1.9-2.8-4.1-3.3-7-2c-1.1,0.5-2.2,0.2-2.9-0.7c-2-2.8-4.7-4.5-8-5.4
			c-1.6-0.4-2.7-1.7-2.7-3.6c0-0.3,0-0.6,0.2-0.8c0.3-0.2,0.5,0.2,0.7,0.3c3.7,2.9,8.5,1.9,10.3-1.3c0.4-0.7,1.1-0.8,1.8-0.8
			c0.6,0,0.6,0.8,0.7,1.2c0.6,2.6,2.6,3.8,5.2,3c0.6-0.2,1-0.1,1.5,0.3c2.5,1.8,6,1.5,7.1-2.1c0.1-0.4,0.3-0.8,0.5-1.2
			c0.3-0.6,0.9-0.9,1.5-0.5c2.4,1.5,4.3,0.4,6.1-1.2c0.1-0.1,0.3-0.2,0.3-0.3c1-1.5,2.2-2.3,4.1-1.8c1.4,0.3,2.6-0.5,3.5-1.5
			c1.6-1.6,3.2-3.3,4.8-5c1.3-1.5,2.2-3.2,2.4-5.2c0.3-2.8,1.1-5.6,0.9-8.4c-0.1-0.6,1.8-2.4,2.4-2.3c0.5,0,0.6,0.4,0.8,0.8
			c0.1,0.1,0.1,0.3,0.1,0.5C157.4,225.5,157.4,226.2,157.4,226.9z"/>
		<path fill="#FFFFFF" d="M225.4,239.2c0.7,2.1-0.2,3.8-1.5,5.3c-0.7,0.8-1.4,1.5-2,2.5c-0.8,1.4-2.3,1.8-3.9,1.8
			c-2.1,0-4.2-0.2-6.3-0.7c-4.6-1.1-6.8-5.8-4.5-9.9c2.1-3.9,5.4-6.1,9.9-5.9c2.3,0.1,4.1,1.4,5.6,2.9c0.6,0.5,1,1.2,1.8,2
			c-0.5-1.4-0.9-2.4-1.2-3.4c-1.6-5.6,2.4-10.1,8.1-9.1c2.1,0.3,4,1.2,5.8,2.5c5.5,4.2,2.9,12.4-0.8,14.7c-1.7,1-3.5,0.7-5.2,0.2
			c-0.4-0.1-0.7-0.4-1.1-0.3c-1.9,0.3-3.2-0.6-4.3-2.1C225.8,239.3,225.8,239.1,225.4,239.2z"/>
		<path fill="#FFFFFF" d="M149.2,289.7c1.9-1.7,3.8-3.4,6.1-4.4c1.6-0.7,3.2-1.5,4.8-2.2c5.9-2.6,9-7.3,10.5-13.3
			c0.7-2.8,1.3-5.7,2-8.5c0.1-0.5,0.2-1,0.7-1.4c3.4-2.8,5.3-6.7,7.3-10.5c2.2-4.2,3.7-8.7,4.1-13.5c0-0.1,0.1-0.3,0.2-0.5
			c0.5,1.1,0.8,2.3,1.3,3.4c1,2.2,1.8,4.5,2.3,6.9c0.9,4.2,0.3,8.2-1.4,12.1c-2.4,5.4-5,10.8-7.7,16.1c-3.2,6.3-8.4,10-14.9,12.2
			c-4.8,1.6-9.8,2.6-14.8,3.7C149.6,289.9,149.4,290,149.2,289.7z"/>
		<path fill="#FFFFFF" d="M73.7,180.4c-0.6,1.1-1.2,2.1-1.7,3c-1.7,3.4-3,6.8-2.8,10.7c0,0.3,0,0.6-0.1,0.8
			c-1.9,4.7-2.6,9.6-4.2,14.4c-1,2.8-2.2,5.5-2.9,8.4c-1.2,5.4-1.4,10.8,0,16.1c0.2,0.8,0.1,1.5-0.2,2.2c-0.7,2-1.7,3.9-2.3,5.9
			c-0.1,0.5-0.4,0.5-0.7,0.1c-2.5-3.1-4.5-6.5-4.6-10.7c-0.1-3.6-0.4-7.2-0.5-10.8c-0.3-9.5,1.9-18.3,6.9-26.4c1.9-3,3.3-6.3,5.7-9
			c1.6-1.8,3.4-3.3,5.6-4.4C72.5,180.7,73,180.4,73.7,180.4z"/>
		<path fill="#FFFFFF" d="M122.6,278.7c-1.8,1.1-3.5,1.3-5.2,1.3c-4.3,0-8.5-1-12.7-1.7c-1.5-0.2-2.9-1-4.1-2
			c-2.1-1.7-4.5-2.8-7.1-3.4c-3.3-0.8-6.3-2.1-8.9-4.2c-4.1-3.3-6.8-7.5-8.4-12.5c-1.4-4.4-3-8.7-3.1-13.4c0-1,0.1-1.9,0.5-2.8
			c0.1-0.2,0.3-0.6,0.6-0.5c0.3,0.1,0.3,0.4,0.4,0.7c0.4,5,2.6,9.5,4.1,14.2c0.6,1.9,2,3.3,3.6,4.5c1.7,1.2,3.3,2.4,5,3.5
			c3,2,6.2,1.9,9.4,1c1.6-0.4,3.1-1.1,4.6-1.7c0.6-0.3,1.1-0.3,1.5,0.4c1.2,1.9,3,3,5,3.8c1.5,0.7,3.1,1.2,4.4,2.3
			c0.4,0.4,0.9,0.5,0.4,1.3c-0.4,0.6,0,1.3,0.3,1.9c0.9,2.1,2.6,3.4,4.4,4.6C119,277.1,120.7,277.9,122.6,278.7z"/>
		<path fill="#FFFFFF" d="M74.6,203.9c-0.8-1.4-0.6-2.8-0.4-4.1c0.5-3,1.7-5.7,3.2-8.2c2-3.5,4.3-6.8,7.1-9.6c2.5-2.5,5.5-4.1,9-4.5
			c2.4-0.3,4.7-1.1,6.9-2.3c1.1-0.6,2.3-1,3.5-1.3c2.2-0.6,4.3-0.1,6.2,1.1c1.8,1.3,3.6,1.6,5.7,0.8c2.5-0.9,4.8,0.7,5.2,3.4
			c0.1,0.5-0.3,0.7-0.6,0.9c-1.8,0.9-3.5,0.9-5.3,0.1c-1.1-0.5-2.1-1-3.1-1.5c-1.1-0.5-2.1-0.2-3.3,0.3c-1.4,0.7-2.7,1.5-3.9,2.5
			c-0.5,0.4-1.1,0.5-1.8,0.4c-2.6-0.3-4.2,0.5-5.3,3c-0.9,1.8-1.9,3.2-4.2,3.2c-1,0-1.8,0.7-2.2,1.6c-0.3,0.6-0.5,1.2-0.7,1.8
			c-0.3,1.1-0.9,1.6-2.2,1.4c-2-0.3-3.3,0.8-3.7,2.7c-0.1,0.4-0.1,0.8-0.2,1.2c-0.4,1.6-1.1,2.2-2.7,2.3c-0.8,0.1-1.6,0.2-2.4,0.3
			c-1.6,0.3-2.7,1.2-3.5,2.6C75.4,202.5,75.2,203.3,74.6,203.9z"/>
		<path fill="#FFFFFF" d="M111.8,198.8c0.2,0,0.6,0,1,0.1c2.3,0.5,4.7,0.7,7,0.8c0.6,0,1.2,0.1,1.4,0.9c0.2,0.7,0.4,1.3-0.3,1.8
			c-0.4,0.3-0.7,0.8-1,1.2c-0.8,1.3-2,1.8-3.4,1.9c-2.3,0.1-3.8,1.2-4.7,3.3c-0.7,1.6-1.4,3.2-2.2,4.8c-0.5,1.2-0.6,2.4-0.4,3.6
			c0.1,1.2-0.1,2.3-0.9,3.3c-0.7,0.8-0.7,1.7-0.5,2.7c0.2,0.8,0.1,1.5-1,1.3c-0.7-0.1-0.9,0.6-1,1.1c-0.1,0.9-0.6,1.3-1.4,1.4
			c-3.1,0.4-6,0-8.7-1.6c-1.3-0.8-1.3-1.5,0-2.4c1.6-1.2,2-2.4,1.1-4.3c-0.2-0.5-0.5-0.9-0.7-1.4c-1-1.6-0.9-3.1,0.4-4.4
			c2.3-2.4,3.6-5.2,4.2-8.4c0.3-1.6,1.4-2.5,3-2.7c2.2-0.2,4.3-0.7,5.9-2.5C110,198.7,110.8,198.7,111.8,198.8z"/>
		<path fill="#FFFFFF" d="M143.8,215.7c0.6,0.6,1,0.1,1.3-0.4c0.7-1,1.3-0.7,1.8,0.2c0.5,0.8,0.8,1.7,1,2.6c0.4,2.4,1.3,4.4,3.2,6
			c1.5,1.2,1.1,3,1,4.6c-0.2,1.8-0.5,3.6-0.8,5.5c-0.2,1.7-1,3.2-2.2,4.5c-1.4,1.5-2.7,2.9-4.1,4.4c-1.3,1.4-2.8,1.9-4.7,1
			c-0.7-0.3-1.1-0.3-1.6,0.5c-0.9,1.3-1.9,2.4-3.2,3.4c-0.9,0.6-1.7,0.7-2.7,0.2c-2.1-1.1-3.6-0.5-4.5,1.7c-0.1,0.2-0.2,0.4-0.3,0.7
			c-0.4,1-0.8,2-2,2.1c-1.3,0.1-2.4-0.3-3.1-1.4c-0.5-0.7-0.9-0.8-1.6-0.3c-2,1.3-3.2,0.7-3.9-1.6c-0.1-0.5-0.3-1-0.5-1.5
			c-0.4-0.8-1.1-1.1-2-0.9c-1.7,0.3-2.8-0.6-2.8-2.3c0.1-1.3,0.6-2.5,1-3.7c0.2-0.5,0.5-0.4,0.9-0.3c1.2,0.4,2.3,0.2,3.3-0.4
			c0.4-0.2,0.8-0.5,1.2-0.1c1.3,1.8,3.1,1.3,4.8,1.2c0.9-0.1,1.7-1,2.5-0.6c0.6,0.4,0.9,1.4,1.4,2.1c0.3,0.4,0.6,0.8,0.9,1.1
			c1.6,1.6,3.5,1.5,4.8-0.4c0.8-1.2,1.2-1.3,2.5-0.6c2.7,1.4,4.6,0.8,5.9-2.1c0.7-1.6,1.5-3.1,2.2-4.7c0.9-2,1.4-4.1,0.7-6.3
			c-0.1-0.3-0.2-0.7,0-1c0.9-1.7,0.5-3.4-0.6-4.8c-0.6-0.8-0.6-1.4-0.2-2.3c0.5-1.1,0.6-2.2,0.8-3.4c0.1-0.9-0.1-1.7-0.5-2.4
			C143.7,215.8,143.7,215.7,143.8,215.7z"/>
		<path fill="#FFFFFF" d="M174.1,221.4c-0.4,4.3,0.2,8.8,0.7,13.4c0.1,1.2,0,2.4-0.2,3.6c-0.2,1.7-0.9,3-2.4,3.9
			c-2.3,1.4-3.9,3.4-5.4,5.6c-0.7,1-1.5,1.8-2.5,2.4c-0.2,0.1-0.4,0.3-0.7,0.2c-0.3-0.2-0.1-0.5,0-0.7c0.8-1.8,1.8-3.6,1.9-5.6
			c0.1-1.4,0.2-2.8,0.3-4.2c0.1-2.3,0.7-4.6,1.3-6.8c1-3.4,0.9-6.6-1.8-9.4c-0.6-0.6-0.8-1.5-0.7-2.3c0.3-3.4-0.6-6.3-2.9-8.8
			c-0.4-0.4-0.6-0.8-0.4-1.4c1.1-3.5,0.2-6.7-1.4-9.8c-0.2-0.5-0.5-0.9-0.7-1.4c-0.2-0.4-0.7-0.8,0.3-0.9c0.7,0,0.7-1,1-1.6
			c0.2-0.4,0.2-1.1,0.6-1.2c0.6-0.1,0.7,0.6,1,1c2.3,3.3,4,6.9,5.8,10.5c0.7,1.5,1.6,2.8,2.8,3.8c2.5,2.2,3.2,5,3.1,8.2
			C174,220.1,174.1,220.6,174.1,221.4z"/>
		<path fill="#FFFFFF" d="M160.2,207.6c0,2.1-0.5,4.2-2.1,5.8c-0.2,0.2-0.5,0.5-0.8,0.4c-0.4-0.1-0.4-0.6-0.4-0.9
			c0-0.4-0.1-0.8-0.1-1.2c0-2.9-1.2-5-3.8-6.3c-0.9-0.4-1.2-1-1-2c0.4-2.6-0.4-4.1-2.6-5.3c-1.3-0.7-1.9-1.8-2.1-3.3
			c-0.5-3.3-2.2-4.6-5.5-4c-0.8,0.1-1.4,0-1.8-0.6c-2.1-2.7-4.8-3.2-7.9-2.4c-0.6,0.2-1,0.1-1.5-0.3c-1.7-1.1-3.4-1.6-5.3-0.4
			c-1.3,0.8-2.5,0.4-3.7-0.4c-0.3-0.2-0.4-0.4-0.4-0.7c0.1-1.2-0.4-2.2-1.1-3.1c-0.4-0.5-0.3-0.7,0.2-1c1.4-0.7,2.7-1.4,4-2.1
			c1.8-1,3.5-1.1,5.4-0.4c2.6,1.1,5.1,1.3,7.8,0.4c1.4-0.5,2.7-0.3,3.8,1c1.2,1.4,2.9,2.3,4.5,3.1c2.6,1.3,4.6,3.2,5.7,5.9
			c1.4,3.3,3.4,6.3,5.3,9.2C158.4,201.6,159.9,204.3,160.2,207.6z"/>
		<path fill="#FFFFFF" d="M135.4,276.2c-1.9,0.2-3.7,0.9-5.6,1.4c-1.4,0.4-2.8,0.4-4.1,0.1c-3.2-0.8-6.1-2.1-8.7-4.1
			c-1-0.8-1.8-1.7-2.3-2.9c-0.1-0.2-0.2-0.5,0-0.6c0.1-0.1,0.4,0,0.5,0.1c1.5,0.8,3.2,0.9,4.9,1.1c2.4,0.2,4.8,1,7.1,1.7
			c1.7,0.5,3.3,0.9,5.1,0.6c1.9-0.3,3.5-1.2,4.9-2.4c1.8-1.7,3.9-2.9,6.3-3.6c2.2-0.6,4.2-1.7,5.8-3.5c0.6-0.7,1.2-1.4,1.4-2.4
			c0.1-0.6,0.4-0.9,1-0.9c3.1-0.2,5.4-2.1,7.4-4.3c0.6-0.7,1.2-1.4,1.7-2.1c1.4-1.9,1.4-1.9,3.5-2.1c0.6-0.1,0.8,0.3,0.9,0.7
			c0.3,1.1-0.1,2-0.6,3c-1.1,2-2.7,3.6-4.1,5.4c-0.7,1-1.4,2-1.8,3.1c-2.1,6-6.5,9.6-12.2,12c-0.8,0.3-1.6,0.6-2.5,0.9
			c-1.7,0.6-3.2,0.6-4.8-0.3C138.1,276.4,136.8,276.2,135.4,276.2z"/>
		<path fill="#FFFFFF" d="M76.6,189.3c-0.4,0.7-0.8,1.4-1.1,2.1c-1.3,2.5-2.5,5-3,7.8c-0.4,2.3-0.5,4.6,1,6.7
			c0.3,0.4,0.1,0.8-0.1,1.1c-0.5,0.9-1,1.8-1.6,2.7c-1.7,2.6-1.8,5.5-1.2,8.4c0.7,3.2,2,6.3,2.5,9.6c0.5,3,0.7,5.9,1,8.9
			c0,0.5,0,0.9-0.7,1c-0.7,0.1-1,0.8-1.3,1.4c-0.8,1.5-0.9,3-0.8,4.7c0,0.3,0.2,0.8-0.1,1c-0.4,0.2-0.7-0.2-0.9-0.4
			c-3.4-2.7-5.5-6.2-6.4-10.5c-0.3-1.4-0.8-2.8-0.9-4.3c-0.6-6.1,0.4-11.9,2.8-17.5c1.3-3,2-6.2,2.8-9.4c0.7-2.7,1.4-5.3,2.6-7.8
			C72.4,192.4,74,190.4,76.6,189.3z"/>
		<path fill="#FFFFFF" d="M23,195.2c-0.2-1.2-0.8-2.3-0.9-3.4c-0.5-4.1,2.6-7,6.6-6.4c3.8,0.5,6.8,2.9,7.4,6
			c0.5,2.8-0.3,5.3-2.2,7.4c-1.4,1.5-3.2,1.5-5,0.9c-0.5-0.2-1-0.3-1.6-0.3c-1.3,0-2.3-0.8-3.1-1.9c0.3,2.2-0.7,3.7-2.3,5
			c-0.1,0.1-0.2,0.3-0.3,0.5c-0.6,1.4-1.7,2-3.1,2.1c-2,0.1-3.9-0.1-5.8-0.6c-3.7-1-5.3-4.7-3.6-8.1c1.6-3.2,5.4-5.4,8.7-4.8
			c1.9,0.3,3.3,1.4,4.5,2.7C22.6,194.7,22.8,195,23,195.2z"/>
		<path fill="#FFFFFF" d="M131,234.1c-0.8,0.1-1.5-0.3-1.9-1.1c-0.5-0.9-1.1-1.5-2-2c-0.8-0.4-1.7-0.4-2.5,0
			c-2.4,0.9-3.8,0.5-5.3-1.7c-0.4-0.6-1-0.9-1.7-0.9c-0.3,0-0.6,0.1-0.8,0c-0.6-0.1-1.4-0.1-1.5-0.9c-0.1-0.7,0.5-0.9,1.2-1.1
			c1.1-0.3,1.4-1.3,0.7-2.3c-1.3-1.8-1.4-1.9-0.1-3.7c0.9-1.2,1.7-2.5,2.3-3.9c0.5-1.4,1.7-2.1,3-2.2c1.6-0.1,2.7-0.8,3.6-2
			c0.3-0.3,0.6-0.7,0.9-0.9c0.8-0.4,1.5-0.4,1.9,0.5c0.7,1.8,2,2.9,4,3.1c0.5,0,0.8,0.3,0.9,0.8c0.4,2.1,1.4,3.9,2.4,5.7
			c0.9,1.7,0.9,3.3,0,4.9c-0.3,0.6-0.5,1.1,0.1,1.6c0.4,0.4,0.5,1,0.3,1.6C135.9,231.7,133.1,234,131,234.1z"/>
		<path fill="#FFFFFF" d="M157.4,215.5c1.2,0.2,1.8-0.7,2.4-1.4c0.4-0.5,0.8-0.6,1.2,0c1.3,1.7,2.1,3.5,2,5.6
			c-0.2,2.2,0.2,4.1,1.8,5.8c1.5,1.6,1.5,3.7,1.1,5.8c-0.5,2.3-1.4,4.4-1.5,6.8c-0.1,1.6-0.2,3.1-0.3,4.7c-0.3,4.1-2.5,7.5-4.8,10.7
			c-0.6,0.8-1.3,1.6-2,2.4c-1.9,2.1-4.2,3.3-7.2,3.3c-2.9,0-5.8-0.1-8.7-0.8c-0.4-0.1-1.1-0.1-1-0.7c0.1-0.6,0.8-1,1.3-0.8
			c1.9,0.7,2.3-0.7,2.8-1.9c0.4-0.9,0.8-1.8,1.1-2.8c0.3-0.8,0.6-1.1,1.5-0.7c0.7,0.3,1.5,0.4,2.2,0.5c2.4,0.2,4.1-0.9,5.1-3
			c0.4-0.8,0.9-1.5,1.7-2c1-0.6,1.5-1.7,1.9-2.7c1.2-3.2,1.3-6.6,1.1-10c-0.1-1.8,0.1-3.6,0.2-5.4c0.1-2.2,0.3-4.3-1.1-6.2
			c-0.2-0.3-0.2-0.6,0-0.9c1.1-1.9,0.7-3.7-0.4-5.4C157.6,216,157.5,215.8,157.4,215.5z"/>
		<path fill="#FFFFFF" d="M88.4,194.5c2.3,0,3.1-0.4,3.7-2.4c0.5-1.7,1.3-2.7,3.2-2.7c1.3,0,2.1-1,2.9-2c0.4-0.5,0.7-1.1,0.9-1.7
			c0.9-1.9,1.6-2.3,3.7-2.2c1.6,0.1,2.9-0.4,4-1.5c1.2-1.2,1.7-1.3,3.1-0.1c1.4,1.2,2.8,1.4,4.5,0.7c1.9-0.8,4.4,0.7,4.9,2.6
			c0.1,0.6,0,0.9-0.6,0.8c-2.1-0.2-3.8,0.7-5.5,1.8c-1.9,1.2-4,1.7-6.1,2c-2.9,0.5-5.1,1.8-6.3,4.6c-0.2,0.6-0.6,0.8-1.2,0.6
			c-1.6-0.4-2.7,0.3-3.6,1.6c-0.7,1-1,2.2-1.4,3.4c-0.3,0.8-0.6,1.4-1.4,1.8c-1.1,0.5-1.6,1.6-1.4,2.7c0.4,2.2-1.2,3.2-2.3,4.6
			c-0.2,0.3-0.7,0.3-1.1,0.3c-0.9,0.1-1.9,0-2.7,0.2c-0.9,0.2-1.4,0-1.8-0.9c-0.3-0.8-0.6-1.6-1-2.5c-0.8-2-0.4-3.9,0.9-5.5
			c1.2-1.5,2.4-3.1,2.6-5.2C86.5,194.4,87.6,194.5,88.4,194.5z"/>
		<path fill="#FFFFFF" d="M261.4,320.3c-6.8,5.3-14.1,8.5-22.4,8.9c-3.7,0.2-7.1-0.7-10.1-3.1c-0.8-0.6-0.8-1.2-0.3-1.9
			c0.6-1,1.3-1.8,2.2-2.5c3.3-2.8,7.1-4.9,11.2-6.4c3.8-1.4,7.4-0.9,10.8,1c1.3,0.7,2.6,1.4,3.9,2.2
			C258,319.3,259.6,319.9,261.4,320.3z"/>
		<path fill="#FFFFFF" d="M19,31.1c8.3-0.8,15.9,0.4,23.1,4.2c3.3,1.8,5.9,4.2,7.3,7.8c0.6,1.7,0.5,2-1.1,2.6
			c-3.1,1.2-6.4,1.2-9.7,1c-1.8-0.1-3.6-0.4-5.3-0.8c-4.1-0.8-6.9-3.1-8.9-6.6c-0.9-1.6-1.8-3.3-2.7-4.9
			C20.9,33.3,20.1,32.3,19,31.1z"/>
		<path fill="#FFFFFF" d="M247.4,300.5c-6.9,5.3-14.3,8.7-22.9,8.9c-3.3,0.1-6.4-0.7-9.1-2.7c-1.4-1.1-1.4-1.3-0.4-2.8
			c1.1-1.6,2.6-2.8,4.2-3.9c3.6-2.4,7.4-4.5,11.8-5.2c2.5-0.4,4.8,0.2,7.1,1.3c1.9,1,3.8,2.1,5.7,3.1
			C244.7,299.8,246,300.1,247.4,300.5z"/>
		<path fill="#FFFFFF" d="M21.2,56.5c8.7-0.8,16.7,0.4,24.1,4.8c2.8,1.7,5,4,6.3,7c0.7,1.8,0.6,2.3-1.3,2.9
			c-3.1,1.1-6.3,1.1-9.5,0.8c-2-0.1-4-0.5-5.9-0.9c-3.5-0.8-6.1-2.8-8-5.9c-0.6-1-1.1-1.9-1.6-2.9C24.2,60.4,23.1,58.3,21.2,56.5z"
			/>
		<path fill="#FFFFFF" d="M231.3,391.3c-0.8-3.6-2.8-6.3-4.3-9.2c-1.8-3.4-2-6.9-0.7-10.5c1.5-4.2,3.6-8,6.5-11.4
			c0.6-0.7,1.3-1.2,2.1-1.8c0.8-0.6,1.4-0.4,2,0.4c2.6,3.2,3.3,7,3,10.9C239.5,377.7,236.4,384.7,231.3,391.3z"/>
		<path fill="#FFFFFF" d="M81.8,23.9c-1.3,3.5-0.9,7-1.3,10.4c-0.4,3.5-1.9,6.4-4.7,8.6c-3.3,2.6-6.9,4.7-10.8,6
			c-1.3,0.4-2.6,0.7-4,0.7c-1,0-1.3-0.5-1.4-1.4c-0.3-2.8,0.3-5.5,1.6-8c2.3-4.4,5.8-7.8,9.8-10.7C74.1,27.1,77.7,25.2,81.8,23.9z"
			/>
		<path fill="#FFFFFF" d="M273.2,339.9c-4.9,4.1-10.2,6.6-16,8.1c-3.6,0.9-7.3,1.3-11,0.5c-1.9-0.4-3.7-1.2-5.3-2.5
			c-1.1-0.9-1.2-1.1-0.4-2.4c0.9-1.3,2-2.4,3.3-3.3c3.1-2.3,6.5-4.1,10.1-5.4c3.5-1.2,6.8-0.8,10.1,0.8c0.6,0.3,1.2,0.6,1.8,1
			C268.1,337.9,270.3,339.4,273.2,339.9z"/>
		<path fill="#FFFFFF" d="M231.1,278.3c-2.7,2.4-5.5,4-8.5,5.4c-4.5,2.1-9.3,3.5-14.3,3.5c-3.4,0-6.6-0.8-9.3-2.9
			c-1-0.7-1.1-1.4-0.4-2.4c0.7-1,1.4-1.8,2.3-2.5c4.1-3.3,8.7-5.8,13.9-6.8c1.5-0.3,2.9,0,4.4,0.4c0.6,0.2,1.2,0.4,1.8,0.6
			C224.4,275.1,227.3,277.5,231.1,278.3z"/>
		<path fill="#FFFFFF" d="M56.4,134.8c8.9-0.8,17.1,0.4,24.5,5.1c2.8,1.8,5,4.2,6.1,7.5c0.3,1,0.1,1.5-0.8,1.9
			c-2.3,1-4.8,1.3-7.3,1.3c-2.8,0-5.5-0.3-8.2-0.9c-4.2-0.8-7.1-3.2-9.2-6.9c-0.9-1.6-1.8-3.3-2.7-4.9
			C58.3,136.8,57.5,135.9,56.4,134.8z"/>
		<path fill="#FFFFFF" d="M196.3,343.7c-0.7-3.6-2.8-6.3-4.3-9.3c-1.7-3.3-2-6.7-0.8-10.2c1.5-4.4,3.5-8.4,6.8-11.7
			c3-3,3.3-2.7,5.2,0.7c2.1,3.7,2.1,7.7,1.5,11.8C203.6,331.8,200.8,338,196.3,343.7z"/>
		<path fill="#FFFFFF" d="M97.3,68.8c-1.4,3.6-0.9,7.3-1.4,10.9c-0.5,3.2-1.9,5.9-4.5,8c-3.4,2.8-7.2,4.9-11.4,6.3
			c-1.1,0.4-2.3,0.5-3.4,0.5c-1.1,0.1-1.5-0.4-1.6-1.5c-0.3-3.1,0.4-5.9,1.9-8.5c2.6-4.7,6.5-8.2,10.9-11.1
			C90.8,71.5,93.8,69.9,97.3,68.8z"/>
		<path fill="#FFFFFF" d="M212.8,367.9c-0.8-3.3-2.6-5.9-4.1-8.7c-2-3.6-2.3-7.3-0.9-11.2c1.4-3.8,3.2-7.3,5.8-10.4
			c0.8-0.9,1.7-1.7,2.6-2.4c0.8-0.6,1.5-0.5,2.1,0.3c1.8,2.3,2.8,4.9,3,7.8c0.5,6.1-1.2,11.7-3.8,17.1
			C216.4,363,214.9,365.5,212.8,367.9z"/>
		<path fill="#FFFFFF" d="M291.1,357.3c-1.6,1.5-3.2,2.6-4.9,3.6c-5.8,3.3-11.9,5.5-18.7,5.4c-3.2-0.1-6.1-0.9-8.6-2.8
			c-1.1-0.9-1.2-1.2-0.4-2.4c1-1.6,2.4-2.7,3.8-3.8c2.8-2.1,5.9-3.6,9.2-4.8c3.7-1.4,7.2-1,10.7,0.8
			C285,354.7,287.7,356.6,291.1,357.3z"/>
		<path fill="#FFFFFF" d="M42.9,111.5c4.1-0.4,8-0.4,11.9,0.3c5,0.9,9.7,2.4,13.8,5.5c2.2,1.7,3.9,3.9,4.9,6.6c0.4,1,0.1,1.6-0.8,2
			c-1.3,0.6-2.7,0.9-4,1c-3.4,0.3-6.8,0.1-10.3-0.5c-4.6-0.7-8-3-10.2-7.1C46.6,116.7,45.3,113.8,42.9,111.5z"/>
		<path fill="#FFFFFF" d="M87,48.3c-1.3,3.4-1,6.8-1.3,10.2c-0.4,3.7-1.9,6.7-4.9,9c-3.7,2.8-7.6,5.1-12.1,6.3
			c-0.3,0.1-0.6,0.1-0.9,0.2c-2.8,0.3-3.3-0.2-3.1-3.1c0.2-3.7,1.7-6.9,4-9.8c4.3-5.5,9.9-9.4,16.3-12C85.6,48.8,86.2,48.6,87,48.3z
			"/>
		<path fill="#FFFFFF" d="M55.6,100.2c-4.5,0.2-7.8-0.2-11.1-1c-3.4-0.9-5.9-2.9-7.7-5.9c-1-1.7-1.9-3.4-2.9-5.1
			c-0.5-0.9-1.1-1.8-1.8-2.5c-0.2-0.3-0.7-0.5-0.5-0.9c0.1-0.4,0.6-0.3,1-0.3c3.2-0.3,6.3-0.2,9.4,0.3c5.1,0.8,10,2.2,14.2,5.3
			c2.5,1.8,4.5,4,5.5,7.1c0.3,0.9,0.1,1.4-0.7,1.8C58.9,100,56.7,100.2,55.6,100.2z"/>
		<path fill="#FFFFFF" d="M106.5,91.5c-1.2,3.3-0.8,6.9-1.2,10.3c-0.4,3-1.6,5.7-4,7.7c-3.8,3.3-8.1,5.8-13,7
			c-3.5,0.9-4.1,0.4-4-3.2c0.1-3.5,1.6-6.6,3.8-9.3c4.6-5.9,10.6-10,17.6-12.6C105.9,91.5,106.2,91.3,106.5,91.5z"/>
		<path fill="#FFFFFF" d="M183.7,319.8c-0.7-3.4-2.6-6-4.1-8.8c-2-3.8-2.2-7.6-0.6-11.5c1.5-3.7,3.3-7.2,5.9-10.2
			c0.8-0.9,1.6-1.7,2.6-2.3c0.7-0.4,1.3-0.4,1.8,0.3c1.7,2.2,2.7,4.6,3,7.3c0.5,4.4-0.3,8.7-1.7,12.8c-1.3,3.8-3.1,7.4-5.5,10.7
			C184.6,318.6,184.3,319,183.7,319.8z"/>
		<path fill="#FFFFFF" d="M97,252.1c-0.7,0-1.4,0.1-2.2,0c-1.5-0.2-2.5-1-2.8-2.5c-0.1-0.6-0.4-1-1-1.1c-1.7-0.4-2.5-1.5-2.8-3.1
			c-0.1-0.7-0.3-1.5-0.4-2.2c-0.2-2.5-1-4.7-2.8-6.6c-2-2.1-2.7-4.4-1.3-7.2c1-1.9,0.8-3.8-0.4-5.7c-0.9-1.4-1.3-2.8-0.1-4.3
			c0.7-0.8,0.4-1.8,0.1-2.7c-1.2-3.2,0-5.1,3.4-5.2c2.3-0.1,2.1-0.4,2.3,2c0.1,1.3-0.1,2.5-0.7,3.6c-0.2,0.3-0.3,0.6-0.5,1
			c-1.5,3-1.1,4.3,1.8,6c0.7,0.4,1.1,0.8,1,1.7c-0.1,1.1,0.5,1.8,1.4,2.3c1,0.5,1.2,1.1,0.7,2.1c-0.8,1.5-0.2,3,0.6,4.3
			c0.3,0.5,0.8,0.9,1.2,1.4c1.2,1.2,1.7,2.6,1.4,4.3c-0.2,1.2-0.3,2.4-0.1,3.6c0.4,2.7,2.1,4.2,4.5,5.1c0.5,0.2,0.7,0.3,0.5,0.8
			c0,0,0,0.1,0,0.1C100.1,252,100.1,252,97,252.1z"/>
		<path fill="#FFFFFF" d="M52.7,49.9c-0.1-4.2,0.1-8.5,0.9-12.7c0.1-0.4,0.1-0.7,0.3-1c0.3-0.5,0.7-0.8,1.3-0.6
			c0.8,0.2,0.9,0.8,0.8,1.5c-0.3,1.7-0.6,3.4-0.7,5.1c-0.6,7.3,0.1,14.4,1.8,21.5c2.5,10.3,6.5,20,11.3,29.4
			c10,19.6,19.5,39.5,28.7,59.5c0.1,0.1,0.1,0.2,0.2,0.3c0.3,0.8,0.6,1.6-0.4,2c-0.9,0.4-1.4-0.3-1.7-1c-2.9-6.3-5.9-12.6-8.8-18.9
			c-5.7-12.5-11.9-24.7-18.1-36.9c-5-9.8-9.5-19.7-12.5-30.3C54,62,53,56.1,52.7,49.9z"/>
		<path fill="#FFFFFF" d="M265.7,374.5c-0.7-0.3-1.5-0.5-2.3-0.9c-8.2-3.5-15.1-8.8-21.2-15.2c-7.7-8-14-17-19.7-26.5
			c-10.1-16.9-20.5-33.6-31.3-50c-1.1-1.6-2.1-3.3-3.2-5c-0.5-0.7-0.8-1.5,0.2-2.1c0.9-0.5,1.4,0.2,1.8,0.8
			c10.7,16.6,21.6,33.2,31.6,50.2c5.5,9.3,11.3,18.4,18.4,26.6c6.4,7.4,13.5,13.7,22.4,18c1.3,0.6,2.6,1.1,4,1.7
			c0.6,0.3,0.9,0.7,0.7,1.4C266.9,374.2,266.5,374.5,265.7,374.5z"/>
		<path fill="#FFFFFF" d="M107.5,250.7c-1.4-0.1-3.2-0.4-4-2.6c-0.3-0.8-0.9-1.2-1.8-1.2c-2.4-0.1-4-1.8-4.3-4.2
			c-0.1-1,0-1.9,0.2-2.9c0.3-2-0.3-3.6-1.6-5.1c-0.4-0.5-0.8-0.9-1.2-1.3c-0.8-1-1-2-0.4-3.2c0.8-1.6,0.5-2.4-0.9-3.4
			c-0.2-0.2-0.5-0.3-0.7-0.5c-0.3-0.2-0.5-0.5-0.4-0.9c0-0.2,0.1-0.4,0.4-0.4c0.4,0,0.5,0.4,0.7,0.6c0.5,0.7,1.2,1.3,2,1.7
			c3.2,1.4,6.4,2.1,9.9,1.3c1.1-0.3,2.6,0.8,2.5,1.9c-0.1,1.6,0.6,2.6,1.7,3.6c2.3,2,2.8,3.9,1.8,6.7c-0.6,1.6-1.2,3.2-0.8,5
			c0.2,0.6,0.4,1.3,0.9,1.7c0.8,0.7,0.5,1.2-0.1,1.8C110.5,250.2,109.4,250.7,107.5,250.7z"/>
		<path fill="#FFFFFF" d="M129.6,171.9c3.4-0.3,6.5,0.4,9.6,1.1c2.8,0.6,5.5,1.3,8.3,1.8c1.7,0.3,3.3,0.9,4.2,2.5
			c1.8,3.2,4.1,6.1,6.1,9.2c2.2,3.4,2.8,6.9,1.1,10.7c-0.1,0.3-0.2,0.7-0.5,0.7c-0.4,0-0.5-0.4-0.6-0.6c-1.8-2.5-3.3-5.1-4.5-7.9
			c-1.3-3-3.4-5.3-6.4-6.8c-1.8-0.9-3.5-2-5-3.5c-1.1-1.2-2.7-1.5-4.2-1c-2.7,0.9-5.2,0.7-7.8-0.3c-2-0.8-4.1-0.6-6,0.4
			c-0.8,0.4-1.2,0.2-1.5-0.5c-0.4-1-1-2-1.8-2.8c-0.4-0.4-0.3-0.7,0.2-0.9C123.5,173,126.5,171.7,129.6,171.9z"/>
		<path fill="#FFFFFF" d="M71.5,190.8c-0.3-0.6-0.1-1,0-1.4c1.6-5,3.8-9.7,8.3-12.8c1.2-0.9,2.3-2,3.4-3c1.9-1.7,4-2.7,6.5-3
			c2.7-0.3,5.3-1,7.7-2c5-2.2,10.1-2.1,15.2-0.3c2.4,0.9,4.9,1.6,7.1,2.8c0.3,0.2,0.9,0.3,0.8,0.8c-0.1,0.4-0.6,0.4-0.9,0.5
			c-3.6,1.3-7.3,1.1-10.9,0c-2.8-0.9-5.6-0.5-8.1,0.8c-2.8,1.4-5.8,2.3-9,2.9c-3.9,0.6-6.9,2.9-9.6,5.8c-0.2,0.2-0.3,0.3-0.5,0.5
			c-1.7,2.4-3.7,4.5-6.6,5.5C73.6,188.3,72.7,189.7,71.5,190.8z"/>
		<path fill="#FFFFFF" d="M99.6,253.6c0.9-0.2,1.5,0.1,2,0.8c1.1,1.5,2.7,2.3,4.4,2.7c1.9,0.4,3.4,1.4,4.5,3.1
			c0.5,0.8,1.1,1.5,1.9,2c1.4,0.9,2.9,1,4.5,0.4c2.5-0.9,2.6-0.9,4.2,1.2c2.5,3.1,5.3,3.5,8.5,1c0.9-0.7,1.5-1,2.3,0
			c0.7,0.9,1.8,0.7,2.8,0.2c1.8-1,3-2.5,3.9-4.3c0.5-0.9,0.9-1.1,1.9-0.8c2.3,0.8,4.8,0.9,7.2,1c0.4,0,0.9-0.2,1,0.3
			c0.1,0.4-0.2,0.8-0.4,1.1c-1.2,1.6-2.8,2.7-4.6,3.2c-3.1,0.9-5.8,2.4-8.2,4.6c-1.7,1.5-3.8,2-6,1.6c-2.6-0.5-5.1-1.6-7.8-2
			c-0.8-0.1-1.5-0.2-2.3-0.3c-2-0.2-3.8-0.7-5.4-2.1c-1.6-1.3-3.4-2.3-5.3-3c-2.2-0.8-3.9-2.2-5-4.2c-1.3-2.4-3.1-4.3-6-4.7
			c-0.3,0-0.5-0.2-0.7-0.4c-0.3-0.2-0.8-0.5-0.7-0.9c0.1-0.4,0.6-0.2,0.9-0.3C98.1,253.8,98.8,253.7,99.6,253.6z"/>
		<path fill="#FFFFFF" d="M233.7,250.8c-0.1-2,0.5-3.6,0.4-5.3c0-1.2,0.8-2.1,1.7-2.7c1.9-1.4,4.1-2.7,6.4-3.3
			c5-1.3,9.9,1.6,8.9,8.5c-0.1,0.6-0.2,1.2-0.4,1.8c-2.4,7.7-9.4,8.4-14.7,5.1C234.5,253.9,233.6,252.4,233.7,250.8z"/>
		<path fill="#FFFFFF" d="M233.8,271.1c-7.1,0.3-11.6-5.3-9.9-11.9c0.6-2.5,2.7-4.2,5.3-4.2c0.5,0,0.9-0.1,1.3-0.4
			c1-0.7,2.1-0.9,3.1-0.4c3.6,1.7,6.7,3.9,8.1,7.9c1.1,3.3-0.3,6.4-3.5,8C236.8,270.7,235.2,271.2,233.8,271.1z"/>
		<path fill="#FFFFFF" d="M216,248.9c3.7-0.2,5.8,1.4,6.5,5.1c0.1,0.3,0.2,0.6,0.4,0.9c1.2,1.4,1.2,2.9,0.6,4.5
			c-1,2.3-2.4,4.5-4.2,6.1c-3.2,2.9-8.1,3.5-11-1.5c-1.3-2.2-1.8-4.5-1.5-7C207.3,252.2,210.8,249.1,216,248.9z"/>
		<path fill="#FFFFFF" d="M150.2,202.8c0,0.2,0,0.6-0.1,1c-0.2,1.2,0.2,2.3,1.4,2.8c2.8,1.3,3.8,3.5,3.7,6.4c-0.1,1.5,0.4,3,1.1,4.4
			c1.1,1.9,0.8,3.3-0.9,4.7c-2.1,1.7-2.1,1.7-4-0.2c-1-1-1.3-2.3-1.6-3.6c-0.4-1.9-0.9-3.7-2.5-4.9c-0.4-0.4-0.3-0.8-0.2-1.2
			c0.5-2.4,0-3.6-2.2-4.6c-0.7-0.3-1-0.8-1-1.5c0-0.6,0-1.1-0.1-1.7c-0.1-1.3-0.7-2.4-1.9-3c-1.9-0.9-3.4-2.1-4.2-4.3
			c-0.6-1.7-1.8-3.1-3.9-3c-0.6,0-0.7-0.4-0.8-0.9c-0.2-1-0.4-2-0.6-3.1c-0.1-0.6,0.1-0.8,0.7-0.9c1.9-0.3,3.7,0,5,1.6
			c1.1,1.4,2.3,1.8,4,1.6c2.3-0.3,3,0.3,3.3,2.5c0.3,2.3,1.4,3.9,3.4,4.8C150,200.4,150.2,201.4,150.2,202.8z"/>
		<path fill="#FFFFFF" d="M131.4,193.7c0.3,0.8-0.3,1.1-1.1,1c-2.3-0.1-4.5-0.2-6.8,0.5c-0.5,0.2-1,0.1-1.4-0.2
			c-2.8-1.4-5.1-0.5-7.2,1.4c-0.6,0.6-1.2,0.8-2,0.6c-1.5-0.2-3-0.3-4.3,0.8c-0.5,0.4-0.7,0.2-0.9-0.3c-0.7-1.8-0.7-1.7-2.5-1.2
			c-0.8,0.2-1.5,0.6-2.3,0.4c-0.6-0.1-0.9-0.4-0.6-1c0.7-1.8,1.7-3.2,3.6-3.7c0.7-0.2,1.4-0.4,2.1-0.5c2.5-0.4,4.9-1.2,7-2.6
			c2.1-1.5,4.3-1.5,6.6-0.3c1.5,0.8,3.1,0.7,4.6,0c2.3-1,4.5,0.2,5,2.6C131.1,192,131.2,192.7,131.4,193.7z"/>
		<path fill="#FFFFFF" d="M143.6,215.8c-1.2-0.5-1.6-1.3-1.8-2.6c-0.3-1.9-1.7-3.2-3.6-3.8c-0.8-0.2-1.3-0.5-1.5-1.4
			c-0.2-1.1-1-1.8-2.1-1.9c-1.6-0.2-2.8-1-3.5-2.5c-0.5-1.1-1.5-1.5-2.7-1.5c-0.7,0-1.2-0.2-1.7-0.7c-0.8-0.7-1.7-1-2.8-0.9
			c-0.5,0-0.9,0-1.1-0.5c-0.5-1.8-1.9-2.1-3.5-2.2c-0.8,0-1.5,0-2.3-0.1c-0.2,0-0.5,0-0.6-0.2c-0.1-0.4,0.2-0.5,0.5-0.6
			c1.3-0.7,2.7-1.2,4.2-0.3c0.9,0.6,1.9,0.6,3,0.3c1.9-0.7,4-0.4,6-0.5c1,0,2,0.1,2.9-0.3c1.4-0.5,2.2,0,2.9,1.1
			c0.1,0.2,0.3,0.5,0.4,0.7c0.6,2.4,2.3,3.8,4.4,4.7c1.1,0.5,1.5,1.3,1.4,2.4c-0.2,2.1,0.5,3.6,2.6,4.3c0.9,0.3,1.1,1.7,0.6,2.9
			c-0.3,0.7-0.8,1.4-1.4,1.9c-0.5,0.5-0.6,1-0.1,1.5C143.7,215.7,143.7,215.8,143.6,215.8z"/>
		<path fill="#FFFFFF" d="M31,223.7c-5.7,0.2-9.4-4.1-8.3-9.4c0.5-2.3,1.9-3.6,4.4-3.9c0.4,0,0.8,0,1-0.2c1.6-1,3-0.6,4.3,0.4
			c1.8,1.4,3.8,2.7,4.7,5c1.3,3,0.3,5.7-2.6,7.2C33.4,223.3,32.1,223.6,31,223.7z"/>
		<path fill="#FFFFFF" d="M39.3,197.5c3.5-0.1,5.8,2,6,5.4c0.2,4-2.3,7.9-5.8,8.7c-2.7,0.6-5.2,0-7.4-1.8c-1.5-1.3-1.4-3-1.1-4.8
			c0.1-0.5,0.2-1,0.1-1.5c-0.1-0.9,0.2-1.7,0.8-2.4C33.1,199.6,37.3,197.6,39.3,197.5z"/>
		<path fill="#FFFFFF" d="M8.8,213.4c-0.5-6.2,5.1-8.4,9.2-7.9c2.2,0.3,3.1,1.9,3.7,3.8c0.1,0.3,0.1,0.8,0.3,1
			c1.2,1.5,0.9,3,0.1,4.5c-0.8,1.4-1.6,2.7-2.7,3.8c-3,3.3-7.4,2.8-9.6-1.1C9.2,216.3,8.9,215,8.8,213.4z"/>
		<path fill="#FFFFFF" d="M115,225c-1-0.6-1.8-0.5-2.6-0.6c-0.8-0.1-1.5-0.4-2.1-1c-0.7-0.7-1-1.4-0.2-2.3c0.9-1.1,1.2-2.5,1.1-3.8
			c-0.2-1.6,0.2-3.1,0.9-4.5c0.7-1.3,1.2-2.6,1.8-3.9c0.4-1,1.1-1.6,2.2-1.6c2.7-0.1,4.8-1.3,6.2-3.7c0.6-1,1.6-1.5,2.8-1.2
			c1.2,0.2,1.5,1.2,1.8,2.2c0.4,1.5,0.1,3.1,0,4.6c0,0.1-0.1,0.3-0.1,0.3c-1.3,0.4-1.9,1.6-2.8,2.5c-0.3,0.3-0.7,0.3-1.1,0.4
			c-2.5,0.3-4.5,1.3-5.3,4c-0.4,1.2-1.2,2.2-2,3.3c-1.1,1.5-1.5,3-0.4,4.6C114.9,224.4,114.9,224.6,115,225z"/>
		<path fill="#FFFFFF" d="M126.2,232.8c0.8,0.1,1.1,0.7,1.4,1.1c1.2,1.8,2.5,2.3,4.6,1.7c2.4-0.7,4.2-2.3,5.4-4.5
			c0.6-1,0.8-2.2,0.3-3.3c-0.2-0.6-0.2-1.1,0.1-1.6c0.2-0.5,0.1-1.2,0.7-1.3c1-0.3,2-0.6,3-0.5c1,0.1,1.7,2.6,0.9,3.4
			c-0.6,0.7-0.6,1.2-0.2,2c0.8,2.1,0.4,4.1-0.6,6c-0.7,1.5-1.5,3-2.2,4.5c-0.7,1.4-1.6,1.8-3,1.1c-0.6-0.3-1.2-0.7-1.9-0.7
			c-1.3-0.1-2.3,0.4-3,1.5c-0.8,1.3-1.5,1.3-2.5,0.1c-1.3-1.6-2-3.3-2.3-5.3C126.7,235.6,126.4,234.2,126.2,232.8z"/>
		<path fill="#FFFFFF" d="M88.9,220.5c0-0.8,0.4-1.5,0.8-2.1c1.1-1.9,1.7-3.7,1.2-5.9c-0.3-1.2,0.1-2.5,1.1-3.4
			c1.2-1.2,1.9-2.5,1.6-4.3c-0.1-0.7,0.1-1.3,0.8-1.5c0.9-0.3,1.3-1.1,1.7-1.9c0.4-1.1,0.8-2.2,1.3-3.2c0.7-1.4,1.6-1.7,2.7-0.7
			c1.5,1.2,3.1,1.4,4.8,0.9c0.6-0.2,1.1-0.4,1.3,0.5c0.2,0.8-0.3,1-1,1.1c-0.6,0-1.1,0-1.7,0.2c-2.4,0.5-4,1.9-4.4,4.4
			c-0.5,2.7-1.7,5.1-3.6,7.2c-2.1,2.4-2.1,4.2-0.5,7c1.1,2,1,2.4-0.9,3.5c-1.7,1.1-3.3,0.8-4.7-0.6C89,221.2,88.9,220.9,88.9,220.5z
			"/>
		<path fill="#FFFFFF" d="M122.1,239.7c-0.9,0-1.7-0.1-2.2-1.1c-0.4-0.7-1.2-0.7-1.9-0.5c-0.4,0.1-0.7,0.3-1.1,0.4
			c-1.9,0.9-2.7,0.6-3.3-1.4c-0.5-1.8-1.4-3.3-2.8-4.5c-0.9-0.7-1.2-1.6-0.8-2.6c0.3-0.7,0.1-1-0.5-1.3c-0.7-0.4-1.2-0.9-1.5-1.6
			c-0.3-0.6-0.3-1.2,0.3-1.7c0.6-0.5,1-0.6,1.7-0.1c0.9,0.6,1.9,0.8,2.9,0.9c0.6,0,0.7,0.3,0.7,0.9c-0.2,1.9,0.7,3,2.7,3.1
			c1.1,0.1,1.7,0.5,2.3,1.3c1.1,1.3,2.7,2.1,4.5,1.8c1.1-0.2,1.7,0.2,1.8,1.4c0.1,0.9,0.3,1.7,0.5,2.6c0.3,1.2-0.1,1.8-1.2,2.1
			C123.3,239.4,122.7,239.5,122.1,239.7z"/>
		<path fill="#FFFFFF" d="M135.2,209.7c-0.2,0.8,0.3,1,1,1.1c1,0.1,2,0.2,2.8,1c0.7,0.7,1.3,1.4,1.3,2.5c0,1.2,0.4,2.1,1.5,2.6
			c0.4,0.2,0.6,0.6,0.6,1.1c-0.1,1.4-0.4,2.8-1.1,4c-0.6,0.9-1.4,1.1-2.4,1.1c-0.9-0.1-0.8-0.9-1.1-1.4c-1.1-2.3-2.3-4.6-3-7.2
			c-0.2-0.8-0.8-1.2-1.7-1.2c-1.4,0.1-2.3-0.5-2.8-1.8c-0.4-0.8-0.8-1.6-1.6-2c-0.5-0.2-0.4-0.6-0.3-1c0.2-1.3,0.3-2.5,0-3.8
			c-0.1-0.3-0.1-0.6,0.2-0.7c0.3-0.1,0.6,0,0.8,0.2c0.2,0.2,0.3,0.4,0.5,0.7c0.8,1.6,2.1,2.4,3.8,2.8
			C135,208,135.2,208.3,135.2,209.7z"/>
		<path fill="#FFFFFF" d="M165.1,297.6c-3.8,2.2-8,3.2-12.4,2.7c-1.6-0.2-3.3-0.3-4.9-0.5c-0.3,0-0.9,0.1-0.9-0.5
			c0.1-0.5,0.5-0.7,1.1-0.6c2.1,0.3,4.2,0.6,6.3,0.8c3.2,0.3,6.2-0.6,9.2-1.5C164,297.9,164.5,297.8,165.1,297.6z"/>
		<path fill="#FFFFFF" d="M143.6,342.8c-0.1,1.1-0.7,1.6-1.5,2c-0.8,0.5-1.4,0.9-2-0.3c-0.5-1.1-0.1-2.4,0.9-3
			c0.9-0.5,1.9-0.2,2.4,0.7C143.5,342.4,143.5,342.6,143.6,342.8z"/>
		<path fill="#FFFFFF" d="M132,359.3c0,1-0.8,2-1.6,2c-0.9,0-1.8-0.9-1.8-1.9c0-1.1,0.7-2,1.6-2C131.2,357.4,132,358.2,132,359.3z"
			/>
		<path fill="#FFFFFF" d="M134.9,344.6c0-1.2,0.8-2.2,1.8-2.2c0.9,0,1.7,0.7,1.7,1.7c0,1.1-1.1,2.3-2.1,2.2
			C135.3,346.2,134.9,345.5,134.9,344.6z"/>
		<path fill="#FFFFFF" d="M138.1,355.6c0.1,1.1-1,2.3-1.9,2.4c-1,0.1-1.2-0.6-1.2-1.4c-0.1-1.3,0.7-2.4,1.6-2.4
			C137.5,354.2,137.9,354.8,138.1,355.6z"/>
		<path fill="#FFFFFF" d="M144,362c0.9,0,1.6,0.7,1.6,1.6c0,1-0.7,1.8-1.6,1.9c-0.9,0-1.6-0.6-1.6-1.6C142.3,362.9,143,362,144,362z
			"/>
		<path fill="#FFFFFF" d="M143,353c0.8,0.1,1.5,0.4,1.6,1.4c0.1,1-0.8,2.2-1.8,2.1c-0.9,0-1.3-0.7-1.3-1.5
			C141.3,354,142.1,353.1,143,353z"/>
		<path fill="#FFFFFF" d="M149.6,351.3c-0.6,0-0.9-0.5-0.9-1.2c0-0.9,1.2-2.2,2.1-2.1c0.8,0.1,1.3,0.5,1.4,1.4
			C152.3,350.4,151,351.3,149.6,351.3z"/>
		<path fill="#FFFFFF" d="M135.3,348.6c0,0.9-1,2.1-2,2.1c-1.2,0-1-1.1-1.1-1.8c-0.1-1,0.5-1.8,1.3-1.8
			C134.4,347,135.2,347.8,135.3,348.6z"/>
		<path fill="#FFFFFF" d="M147.6,343.6c0.7,0,1.2,0.5,1.3,1.3c0.1,0.8-1.3,2.2-2.2,2.1c-0.7,0-0.9-0.7-0.9-1.3
			C145.7,344.7,146.5,343.7,147.6,343.6z"/>
		<path fill="#FFFFFF" d="M148.6,356.6c-0.1-1.1,0.6-2,1.5-2c0.9,0,1.4,0.5,1.5,1.4c0.1,1-0.6,1.8-1.6,1.8
			C149.1,357.8,148.7,357.2,148.6,356.6z"/>
		<path fill="#FFFFFF" d="M131.3,355.2c-0.9-0.1-1.2-0.7-1.2-1.6c0-1,0.6-1.8,1.4-1.7c0.8,0.1,1.4,0.5,1.4,1.3
			C133,354.1,132.2,355.2,131.3,355.2z"/>
		<path fill="#FFFFFF" d="M139.3,349.9c0,1-0.8,2.2-1.5,2.2c-0.8-0.1-1.3-0.6-1.4-1.4c-0.1-0.9,0.9-2,1.7-2
			C138.9,348.6,139.3,349.1,139.3,349.9z"/>
		<path fill="#FFFFFF" d="M132.1,365.9c0.2-0.8-0.4-2,1.1-2.2c0.8-0.1,1.6,0.8,1.7,1.6c0,0.9-0.7,1.6-1.7,1.6
			C132.6,366.9,132,366.7,132.1,365.9z"/>
		<path fill="#FFFFFF" d="M150.5,361.6c-0.1,0.8-0.4,1.5-1.4,1.5c-0.9,0-1.5-0.5-1.5-1.5c0-0.9,0.5-1.5,1.5-1.5
			C150.1,360.1,150.4,360.8,150.5,361.6z"/>
		<path fill="#FFFFFF" d="M139,361.7c0.7,0,1.2,0.4,1.3,1.3c0.1,0.9-0.6,1.7-1.5,1.7c-0.9,0-1.3-0.6-1.4-1.4
			C137.4,362.5,138,361.8,139,361.7z"/>
		<path fill="#FFFFFF" d="M143.9,359.2c0-1,0.6-1.8,1.5-1.8c0.8,0,1.2,0.5,1.2,1.3c0,0.9-0.8,1.8-1.7,1.8
			C144.4,360.5,144,360,143.9,359.2z"/>
		<path fill="#FFFFFF" d="M135.1,359.7c0.7,0,1.2,0.3,1.3,1.1c0.1,0.7-0.9,2.1-1.4,2c-0.8-0.2-1.1-0.9-1.2-1.6
			C133.8,360.4,134.2,359.8,135.1,359.7z"/>
		<path fill="#FFFFFF" d="M147.8,351.2c0,0.7-0.5,1.4-1.3,1.5c-0.8,0.1-1.2-0.7-1.2-1.5c0-0.8,0.3-1.4,1.2-1.4
			C147.3,349.7,147.8,350.2,147.8,351.2z"/>
		<path fill="#FFFFFF" d="M141,359c-0.1,0.9-0.4,1.5-1.3,1.6c-0.8,0-1.3-0.4-1.3-1.2c0-0.9,0.5-1.4,1.4-1.5
			C140.6,357.8,140.9,358.3,141,359z"/>
		<path fill="#FFFFFF" d="M141.9,351.3c-0.7,0-1.2,0-1.2-0.8c0-0.8,0.2-1.7,1.2-1.8c0.7-0.1,1.2,0.4,1.3,1.1
			C143.2,350.8,142.6,351.2,141.9,351.3z"/>
	</g>
</g>
</svg>
